<svg width="68" height="95" fill="none" xmlns="http://www.w3.org/2000/svg"><path d="M67.71 90.448a4.49 4.49 0 01-4.485 4.494l-58.005.066a4.495 4.495 0 01-4.253-3.034 4.39 4.39 0 01-.24-1.443L.634 6.881a4.49 4.49 0 014.486-4.493l53.262-.058 4.742-.008a4.49 4.49 0 014.494 4.485l.091 83.641z" fill="url(#paint0_linear)"/><path d="M61.7 89.967l-54.963.058a2.41 2.41 0 01-2.412-2.412L4.242 9.767a2.41 2.41 0 012.413-2.413l54.953-.058a2.41 2.41 0 012.413 2.413l.083 77.846a2.403 2.403 0 01-2.404 2.412z" fill="#fff"/><path d="M53.98 13.714l-40.087.05a2.413 2.413 0 01-2.413-2.405l-.008-6.683a2.413 2.413 0 012.404-2.413l40.096-.041a2.413 2.413 0 012.413 2.404l.008 6.683a2.419 2.419 0 01-2.413 2.405zM13.876 3.49c-.647 0-1.177.53-1.177 1.177l.008 6.683c0 .646.53 1.177 1.177 1.177l40.096-.042c.647 0 1.178-.53 1.178-1.177l-.009-6.683c0-.646-.53-1.177-1.177-1.177l-40.096.042z" fill="url(#paint1_linear)"/><path d="M52.844 5.116l-37.434.041a.743.743 0 01-.746-.746V.788c0-.415.331-.747.746-.747L52.836 0c.415 0 .746.332.746.746V4.37a.73.73 0 01-.738.747z" fill="url(#paint2_linear)"/><path d="M15.443 5.157l37.368-.041c.431 0 .78-.349.78-.78V2.562l-38.935.041v1.775c0 .43.356.78.787.78z" fill="#58D6F4"/><defs><linearGradient id="paint0_linear" x1="-8.654" y1="34.748" x2="76.999" y2="62.578" gradientUnits="userSpaceOnUse"><stop stop-color="#6CBCFC"/><stop offset=".171" stop-color="#5EABFC"/><stop offset=".408" stop-color="#509AFC"/><stop offset=".67" stop-color="#4890FC"/><stop offset="1" stop-color="#458DFC"/></linearGradient><linearGradient id="paint1_linear" x1="-4.59" y1="-21.375" x2="56.387" y2="7.99" gradientUnits="userSpaceOnUse"><stop stop-color="#CFE9FF"/><stop offset="1" stop-color="#A1D6FB"/></linearGradient><linearGradient id="paint2_linear" x1="14.654" y1="2.58" x2="53.59" y2="2.58" gradientUnits="userSpaceOnUse"><stop stop-color="#B0F4FF"/><stop offset="1" stop-color="#69DCFC"/></linearGradient></defs></svg>